{"title":"Chasing.Mavericks.2012 WEbrip XVID AC3 BHRG","uid":8138607,"size":1760108585,"categoryP":"video","categoryS":"movies","magnet":"?xt=urn:btih:4863a7b19d6ccced61e4bcaa3662edd6d2755a3e&amp;dn=Chasing.Mavericks.2012+WEbrip+XVID+AC3+BHRG&amp;tr=udp%3A%2F%2Ftracker.openbittorrent.com%3A80&amp;tr=udp%3A%2F%2Fopen.demonii.com%3A1337&amp;tr=udp%3A%2F%2Ftracker.coppersurfer.tk%3A6969&amp;tr=udp%3A%2F%2Fexodus.desync.com%3A6969","seeders":1,"leechers":0,"uploader":"juggs99","files":3,"time":1360766630,"description":"Format : AVI\nFormat/Info : Audio Video Interleave\nFile size : 1.63 GiB\nDuration : 1h 56mn\nOverall bit rate : 1 992 Kbps\nWriting library : VirtualDub build 30091/release\n\nVideo\nID : 0\nFormat : MPEG-4 Visual\nFormat profile : Advanced Simple@L5\nFormat settings, BVOP : 1\nFormat settings, QPel : No\nFormat settings, GMC : No warppoints\nFormat settings, Matrix : Default (H.263)\nMuxing mode : Packed bitstream\nCodec ID : XVID\nCodec ID/Hint : XviD\nDuration : 1h 56mn\nBit rate : 1 600 Kbps\nWidth : 720 pixels\nHeight : 384 pixels\nDisplay aspect ratio : 1.85:1\nFrame rate : 23.976 fps\nColor space : YUV\nChroma subsampling : 4:2:0\nBit depth : 8 bits\nScan type : Progressive\nCompression mode : Lossy\nBits/(Pixel*Frame) : 0.241\nStream size : 1.31 GiB (80%)\nWriting library : XviD 1.2.1 (UTC 2008-12-04)\n\nAudio\nID : 1\nFormat : AC-3\nFormat/Info : Audio Coding 3\nMode extension : CM (complete main)\nFormat settings, Endianness : Big\nCodec ID : 2000\nDuration : 1h 56mn\nBit rate mode : Constant\nBit rate : 384 Kbps\nChannel(s) : 6 channels\nChannel positions : Front: L C R, Side: L R, LFE\nSampling rate : 48.0 KHz\nBit depth : 16 bits\nCompression mode : Lossy\nStream size : 320 MiB (19%)\n\n\n &lt;a href=&quot;\nhttp://www.shotpix.com/images/65119804968363360246.png&quot; rel=&quot;nofollow&quot; target=&quot;_NEW&quot;&gt;\nhttp://www.shotpix.com/images/65119804968363360246.png&lt;/a&gt; &lt;a href=&quot;\nhttp://www.shotpix.com/images/59014072530551812014.png&quot; rel=&quot;nofollow&quot; target=&quot;_NEW&quot;&gt;\nhttp://www.shotpix.com/images/59014072530551812014.png&lt;/a&gt; &lt;a href=&quot;\nhttp://www.shotpix.com/images/04234621082249190035.png&quot; rel=&quot;nofollow&quot; target=&quot;_NEW&quot;&gt;\nhttp://www.shotpix.com/images/04234621082249190035.png&lt;/a&gt; &lt;a href=&quot;\nhttp://www.shotpix.com/images/29333995478971873059.png&quot; rel=&quot;nofollow&quot; target=&quot;_NEW&quot;&gt;\nhttp://www.shotpix.com/images/29333995478971873059.png&lt;/a&gt;","torrent":{"xt":"urn:btih:4863a7b19d6ccced61e4bcaa3662edd6d2755a3e","amp;dn":"Chasing.Mavericks.2012+WEbrip+XVID+AC3+BHRG","amp;tr":["udp%3A%2F%2Ftracker.openbittorrent.com%3A80","udp%3A%2F%2Fopen.demonii.com%3A1337","udp%3A%2F%2Ftracker.coppersurfer.tk%3A6969","udp%3A%2F%2Fexodus.desync.com%3A6969"],"infoHash":"4863a7b19d6ccced61e4bcaa3662edd6d2755a3e","infoHashBuffer":{"type":"Buffer","data":[72,99,167,177,157,108,204,237,97,228,188,170,54,98,237,214,210,117,90,62]},"announce":[],"urlList":[]}}